<svg id="Layer_3" height="512" viewBox="0 0 64 64" width="512" xmlns="http://www.w3.org/2000/svg" data-name="Layer 3"><path d="m17.018 38.125.982 6.875-2 1-3.768-4.71a54.921 54.921 0 0 0 4.786-3.165z" fill="#f4b2b0"/><path d="m13.875 34.982-6.875-.982-1 2 4.71 3.768a54.921 54.921 0 0 1 3.165-4.786z" fill="#f4b2b0"/><path d="m21 27-8-5-2 2 6.537 6.537q.813-.886 1.664-1.738z" fill="#f4b2b0"/><path d="m25 31 5 8-2 2-6.537-6.537q.887-.813 1.737-1.663z" fill="#f4b2b0"/><path d="m19.2 28.8 4.971-4.971a2.828 2.828 0 0 1 2-.828 2.828 2.828 0 0 1 2.829 2.827 2.828 2.828 0 0 1 -.828 2l-4.972 4.972a54.934 54.934 0 0 1 -11.587 8.85.926.926 0 0 1 -1.113-.15.926.926 0 0 1 -.149-1.114 54.934 54.934 0 0 1 8.849-11.586z" fill="#f4b2b0"/><g fill="#b3404a"><path d="m62 17h-4.586l-15.707-15.707a1 1 0 0 0 -1.414 0l-15.707 15.707h-22.586a1 1 0 0 0 -1 1v32a1 1 0 0 0 1 1h8.586l11.707 11.707a1 1 0 0 0 1.414 0l11.707-11.707h26.586a1 1 0 0 0 1-1v-32a1 1 0 0 0 -1-1zm-21-13.586 13.586 13.586h-27.172zm-38 15.586h45v30h-45zm20 41.586-9.586-9.586h19.172zm38-11.586h-11v-30h11z"/><path d="m21.42 35.834 5.873 5.873a1 1 0 0 0 1.414 0l2-2a1 1 0 0 0 .141-1.237l-4.578-7.326 2.608-2.608a3.828 3.828 0 1 0 -5.414-5.414l-2.608 2.608-7.326-4.578a1 1 0 0 0 -1.237.141l-2 2a1 1 0 0 0 0 1.414l5.873 5.873q-1.427 1.613-2.727 3.33l-6.3-.9a1 1 0 0 0 -1.037.543l-1 2a1 1 0 0 0 .27 1.228l4.057 3.245a1.9 1.9 0 0 0 2.545 2.546l3.242 4.053a1 1 0 0 0 1.228.27l2-1a1 1 0 0 0 .543-1.037l-.9-6.3q1.72-1.296 3.333-2.724zm7.31 3.021-.73.731-5.119-5.119c.34-.323.7-.629 1.027-.961l.91-.91zm-16.316-14.855.731-.73 6.255 3.912-.91.91c-.332.332-.638.687-.961 1.027zm-4.842 11.092 4.561.651c-.58.834-1.132 1.685-1.666 2.55l-3.211-2.569zm12.336-5.586 4.97-4.97a1.829 1.829 0 1 1 2.586 2.586l-4.97 4.97a53.947 53.947 0 0 1 -11.139 8.553 53.947 53.947 0 0 1 8.553-11.139zm-3 14.922-.632.316-2.569-3.211c.865-.534 1.716-1.086 2.55-1.666z"/><path d="m32 22h14v2h-14z"/><path d="m32 26h14v2h-14z"/><path d="m34 30h12v2h-12z"/><path d="m22 45h24v2h-24z"/><path d="m57 23h2v22h-2z"/><path d="m53 25h2v18h-2z"/></g></svg>